<svg width="32" height="32" viewBox="0 0 32 32" fill="none" xmlns="http://www.w3.org/2000/svg">
<rect width="32" height="32" rx="4" fill="#171519"/>
<path fill-rule="evenodd" clip-rule="evenodd" d="M15.9727 26.8945C22.0478 26.8945 26.9727 21.9697 26.9727 15.8945C26.9727 9.8194 22.0478 4.89453 15.9727 4.89453C9.89752 4.89453 4.97266 9.8194 4.97266 15.8945C4.97266 21.9697 9.89752 26.8945 15.9727 26.8945ZM8.91313 16.4783C8.43847 16.3802 8.45433 15.6314 8.93255 15.5524C13.5947 14.7826 14.9353 13.5878 15.7434 9.18139C15.8327 8.69438 16.6475 8.69448 16.7368 9.1815C17.5125 13.4146 18.7815 14.6825 23.0151 15.459C23.5021 15.5483 23.502 16.3631 23.015 16.4523C18.7819 17.2281 17.514 18.497 16.7375 22.7307C16.6482 23.2177 15.7834 23.2251 15.6734 22.7424C14.7011 18.4761 12.9466 17.3126 8.91313 16.4783Z" fill="white"/>
</svg>
